<svg width="154" height="24" viewBox="0 0 154 24" fill="none" xmlns="http://www.w3.org/2000/svg">
<g clip-path="url(#clip0)">
<path d="M24 0H0V4.8H24V0Z" fill="#FAB82E"/>
<path d="M24 9.59998H0V14.4H24V9.59998Z" fill="#ED7817"/>
<path d="M24 19.2H0V24H24V19.2Z" fill="#E32112"/>
<path d="M117.256 4.8L121.048 14.392H113.456L117.256 4.8ZM113.576 0L104.36 24H109.864L111.664 19.192L122.84 19.2L124.64 24H130.112L120.368 0H113.576Z" fill="black"/>
<path d="M33.5916 0V24H53.2875V19.2L38.4075 19.192V14.4H53.2875V9.592H38.4075V4.808L53.2875 4.792V0H33.5916Z" fill="black"/>
<path d="M133.44 23.9839H142.744H146.44C150.312 23.9839 153.6 21.3519 153.6 16.8639C153.6 15.0159 152.888 13.1999 150.672 11.9999C153.232 10.5119 153.6 8.98387 153.6 7.13587C153.6 3.23187 150.32 0.0158691 146.44 0.0158691H142.744H133.44V4.89587H146.216C147.52 4.89587 148.576 5.95187 148.576 7.25587C148.576 8.55987 147.52 9.61587 146.216 9.61587H143.664H135.832V14.3919H143.664H146.216C147.52 14.3919 148.576 15.4479 148.576 16.7519C148.576 18.0559 147.52 19.1119 146.216 19.1119H133.44V23.9839Z" fill="black"/>
<path d="M97.7283 0H94.0323H84.4883V24H89.2883V14.376H94.9523H97.7283C101.696 14.376 104.92 11.16 104.92 7.184C104.92 3.208 101.696 0 97.7283 0ZM97.5043 9.608H89.2883V4.88H97.5043C98.8083 4.88 99.8643 5.936 99.8643 7.24C99.8643 8.544 98.8083 9.608 97.5043 9.608Z" fill="black"/>
<path d="M76.4163 11.9923C78.9763 10.5043 79.3443 8.9763 79.3443 7.1283C79.3443 3.2243 76.0643 0.00830078 72.1842 0.00830078H59.0642V23.9843H72.4242C76.2963 23.9843 79.5843 21.3523 79.5843 16.8643C79.5763 15.0083 78.6323 13.1923 76.4163 11.9923ZM63.8562 4.8803H71.9523C73.2563 4.8803 74.3123 5.9363 74.3123 7.2403C74.3123 8.5443 73.2563 9.6003 71.9523 9.6003H69.5202H63.8482V4.8803H63.8562ZM72.1923 19.1043H63.8562V14.3843H72.1923C73.4963 14.3843 74.5523 15.4403 74.5523 16.7443C74.5523 18.0403 73.4963 19.1043 72.1923 19.1043Z" fill="black"/>
</g>
<defs>
<clipPath id="clip0">
<rect width="153.6" height="24" fill="white"/>
</clipPath>
</defs>
</svg>
