<svg xmlns="http://www.w3.org/2000/svg" xmlns:xlink="http://www.w3.org/1999/xlink" width="100" height="100" viewBox="0 0 100 100"><defs><style>.a{fill:#f5f5f5;}.b{clip-path:url(#a);}.c{fill:#011721;}.d{fill:#9c6639;}.e{fill:#89532e;}.f{fill:#fcaf3a;}.g{fill:#20120c;}.h{fill:#fff;}</style><clipPath id="a"><circle class="a" cx="50" cy="50" r="50"/></clipPath></defs><g transform="translate(-2630.349 -943.949)"><circle class="a" cx="50" cy="50" r="50" transform="translate(2630.349 943.95)"/><g class="b" transform="translate(2630.349 943.95)"><g transform="translate(5.508 18.662)"><path class="c" d="M2706.372,981.849s-5.125-6.7-12.667-4.857c-11.234,2.74-9.466,9.568-5.386,14.852,8.538,11.057,5.13,12.815,10.471,12.362,6.6-.559,7.622.017,11.963-9.923C2713.26,988.543,2712.687,981.8,2706.372,981.849Z" transform="translate(-2659.42 -976.672)"/><path class="d" d="M2706.075,999.69s.086-7.736-8.414-8.879c-5.774-.776-7.58,4.631-7.707,11.931s2.046,12.089,7.008,10.991c5.229-1.156,8.343-3.6,9.559-7.519a4.168,4.168,0,0,0,3.7-4.732C2709.846,996.694,2706.075,999.69,2706.075,999.69Z" transform="translate(-2661.466 -982.715)"/><path class="d" d="M2697.593,1031.329s2.281-.978,2.3-8.629l10.649-7.7s.237,13.509,3.023,15.349c0,0-1.42,14.965-9.708,15.346C2698.823,1045.928,2698.048,1035.053,2697.593,1031.329Z" transform="translate(-2664.751 -993.142)"/><path class="e" d="M2697.739,1005.517s-1.181,3.24-2.15,4.078.571,2.208,2.5,1.723C2698.855,1011.127,2697.739,1005.517,2697.739,1005.517Z" transform="translate(-2663.761 -989.066)"/><path class="f" d="M2672.85,1042.893a6.853,6.853,0,0,0,6.244,3.276c1.917-.041,6.512-.141,9.728-4.253,0,0,31.471,3.4,41.056,28.2,0,0-44.729,39.86-89.871,1.479C2640.007,1071.6,2650.273,1047.4,2672.85,1042.893Z" transform="translate(-2640.007 -1004.706)"/><circle class="g" cx="0.911" cy="0.911" r="0.911" transform="translate(29.24 15.789)"/><circle class="g" cx="0.911" cy="0.911" r="0.911" transform="translate(37.265 15.789)"/><path class="g" d="M2707.86,999.51a12.2,12.2,0,0,0-2.014-.135.928.928,0,0,0-.815,1.014.941.941,0,0,0,1.014.815,9.2,9.2,0,0,1,1.521.122A.92.92,0,0,0,2707.86,999.51Z" transform="translate(-2667.945 -986.426)"/><path class="g" d="M2691.978,999.063a5.343,5.343,0,0,0-.729.007,13.44,13.44,0,0,0-.515,1.918,1.027,1.027,0,0,0,.131-.018c.092-.019.183-.037.274-.051.043-.007.087-.012.131-.018l.041,0c.2,0,.4-.01.6,0a.929.929,0,0,0,.951-.887A.938.938,0,0,0,2691.978,999.063Z" transform="translate(-2661.803 -986.289)"/><path class="c" d="M2704.478,997.192s0,9.014-2.143,10.328-12.945.387-12.945.387-1.908,5.785-.052,7.642,8.64,3.043,11.5,1.114,5.17-3,5.228-14.594C2706.063,1002.068,2706.549,997.692,2704.478,997.192Z" transform="translate(-2660.855 -985.489)"/><path class="h" d="M2695.29,1020.749l4.484-.464s.117,1.777-2.031,1.983A2.116,2.116,0,0,1,2695.29,1020.749Z" transform="translate(-2663.761 -995.412)"/></g></g></g></svg>