<svg xmlns="http://www.w3.org/2000/svg" xmlns:xlink="http://www.w3.org/1999/xlink" width="100" height="100" viewBox="0 0 100 100"><defs><style>.a{fill:#f5f5f5;}.b{clip-path:url(#a);}.c{fill:#011721;}.d{fill:#e5af9c;}.e{fill:#d39784;}.f{fill:#405fbd;}.g{fill:#20120c;}.h{fill:#fff;}</style><clipPath id="a"><circle class="a" cx="50" cy="50" r="50"/></clipPath></defs><g transform="translate(-2630.349 -1197.943)"><circle class="a" cx="50" cy="50" r="50" transform="translate(2630.349 1197.943)"/><g class="b" transform="translate(2630.349 1197.943)"><g transform="translate(9.27 19.016)"><path class="c" d="M2714.849,1236.832s-3.366-7.246-12.54-5.176c-13.7,3.091-10.126,9.557-6.182,14.941,8.256,11.27,5.228,12.71,10.578,12.393,6.612-.392,7.618.209,12.21-9.618C2721.565,1243.7,2723.684,1237.193,2714.849,1236.832Z" transform="translate(-2666.352 -1231.285)"/><path class="d" d="M2714.777,1253.438s-.517-8.882-7.877-10.046c-5.755-.911-8,5.691-8.308,12.985s1.74,12.136,6.729,11.165c5.257-1.024,8.608-3.593,9.923-7.474,0,0,3.833-.1,3.636-4.439C2718.67,1251.017,2714.777,1253.438,2714.777,1253.438Z" transform="translate(-2668.929 -1236.451)"/><path class="d" d="M2703.1,1287.031s4.614-1.554,3.853-9.4l10.839-7.427s-1.166,14.957,4.277,16.44c0,0-3.439,13.906-11.736,14.077C2705.3,1300.824,2703.464,1290.766,2703.1,1287.031Z" transform="translate(-2670.881 -1248.007)"/><path class="e" d="M2705.8,1259.909s-1.239,3.044-2.23,3.857.515,2.221,2.46,1.786C2706.794,1265.379,2705.8,1259.909,2705.8,1259.909Z" transform="translate(-2670.946 -1243.584)"/><path class="e" d="M2709.407,1282.765s4.984-1.465,7.931-3.879c1.453-1.19.425,2.225-1.834,4.74a13.9,13.9,0,0,1-6.889,3.668A10.707,10.707,0,0,0,2709.407,1282.765Z" transform="translate(-2673.249 -1251.633)"/><path class="f" d="M2678.826,1299.417a12.439,12.439,0,0,0,7.494,2.6c1.918.007,8.371-.149,11.475-2.987,0,0,29.733,3.171,38.688,28.212,0,0-45.721,38.717-89.88-.793C2646.6,1326.449,2656.143,1303.349,2678.826,1299.417Z" transform="translate(-2646.604 -1260.393)"/><path class="g" d="M2701.9,1259.8a.911.911,0,1,1-.887-.933A.911.911,0,0,1,2701.9,1259.8Z" transform="translate(-2669.582 -1243.137)"/><path class="g" d="M2715.595,1260.023a.911.911,0,1,1-.888-.934A.911.911,0,0,1,2715.595,1260.023Z" transform="translate(-2675.465 -1243.232)"/><path class="g" d="M2716.483,1253.31a12.16,12.16,0,0,0-2.017-.073.927.927,0,0,0-.784,1.039.941.941,0,0,0,1.039.783,9.216,9.216,0,0,1,1.524.075A.92.92,0,0,0,2716.483,1253.31Z" transform="translate(-2675.423 -1240.712)"/><path class="g" d="M2701.171,1252.645a5.833,5.833,0,0,0-1.543.08.928.928,0,0,0-.708,1.09.938.938,0,0,0,1.091.708c.091-.017.183-.032.275-.044.043-.006.086-.01.13-.014l.041,0c.2.007.4,0,.6.018a.92.92,0,0,0,.11-1.836Z" transform="translate(-2669.073 -1240.454)"/><path class="h" d="M2703.667,1273.746l4.5-.2a1.951,1.951,0,0,1-2.144,1.86A2.116,2.116,0,0,1,2703.667,1273.746Z" transform="translate(-2671.123 -1249.444)"/><path class="h" d="M2713.241,1258.565l-.079-.608-3.606.479a3.261,3.261,0,0,0-6.449-.365,1.709,1.709,0,0,0-1.631-.041,3.265,3.265,0,1,0,.026.7,1.161,1.161,0,0,1,1.542.045,3.261,3.261,0,0,0,6.5.278Zm-15.058,2.589a2.655,2.655,0,0,1-2.543-2.192l1.636-.219.075-.631-1.744.236a2.649,2.649,0,1,1,2.576,2.806Zm8.054.2a2.651,2.651,0,1,1,2.717-2.582A2.653,2.653,0,0,1,2706.238,1261.357Z" transform="translate(-2667.393 -1241.578)"/><path class="h" d="M2703.1,1299.417l4.656,7.612,3.649-5.02,5.158,5.243,5.506-8.223S2712.993,1305.4,2703.1,1299.417Z" transform="translate(-2670.881 -1260.393)"/></g></g></g></svg>