<svg xmlns="http://www.w3.org/2000/svg" xmlns:xlink="http://www.w3.org/1999/xlink" width="100" height="100" viewBox="0 0 100 100"><defs><style>.a{fill:#f5f5f5;}.b{clip-path:url(#a);}.c{fill:#011721;}.d{fill:#e5af9c;}.e{fill:#fff;}.f{fill:#d39784;}.g{fill:#fd5421;}</style><clipPath id="a"><circle class="a" cx="50" cy="50" r="50"/></clipPath></defs><g transform="translate(-2901.449 -943.949)"><circle class="a" cx="50" cy="50" r="50" transform="translate(2901.449 943.95)"/><g class="b" transform="translate(2901.449 943.95)"><g transform="translate(-5.439 14.995)"><path class="c" d="M2951.69,976.36s4.584-.75,9.309,4.474c3.206,3.545,3.033,10.225.663,13.842-7.348,11.209,12.151,13.724,6.789,23.983-6.047,11.57-29.111,15.73-33.516,17.143-9.1,2.919-22.682,13.287-39.173-4.524-7.617-8.226-5.63-36.6,21.691-31.573,4.711.867,15.564-3.891,13.246-10.431C2924.068,970.569,2942.948,964.438,2951.69,976.36Z" transform="translate(-2891.913 -970.241)"/><path class="d" d="M2989.2,998.518s-.557-8.884-7.89-9.666c-5.559-.591-7.486,5.712-7.552,12.716s2.055,11.581,6.807,10.49c5.008-1.149,7.976-3.522,9.113-7.285a4,4,0,0,0,3.509-4.568C2992.791,995.614,2989.2,998.518,2989.2,998.518Z" transform="translate(-2927.078 -978.221)"/><path class="d" d="M2984.414,1030.184s2.246-2.577,1.805-7.694l7.694-7.407s-.062,12.444,3.768,14.824c0,0-.205,5.893-5.028,6.224S2984.879,1033.754,2984.414,1030.184Z" transform="translate(-2931.659 -989.509)"/><path class="e" d="M3001.834,1015.426a1.26,1.26,0,1,1-.842-1.571A1.261,1.261,0,0,1,3001.834,1015.426Z" transform="translate(-2938.084 -988.958)"/><path class="f" d="M2980.518,1005.825c-.018-.14-.733-.117-.757.021a4.741,4.741,0,0,1-1.149,2.76c-.935.8.9,1.57,1.649,1.486C2980.894,1010.022,2980.674,1007.022,2980.518,1005.825Z" transform="translate(-2929.054 -985.49)"/><path class="f" d="M2987.29,1026.732s3.409-1.534,4.629-2.86.119,3.18-.477,4.037a6.785,6.785,0,0,1-4.625,3.26A13.715,13.715,0,0,0,2987.29,1026.732Z" transform="translate(-2932.692 -993.182)"/><path class="g" d="M2972.056,1041.075s-1.513,5.495-6.246,5.024-6.133-3.306-7.022-4.747c0,0-7.9-.85-19.012,7.481-10.286,7.715-12.643,18.538-15,24.857,0,0,41.035,36,77.732-3.626C3002.508,1070.064,2997.141,1042.891,2972.056,1041.075Z" transform="translate(-2906.034 -1000.677)"/><circle class="c" cx="0.911" cy="0.911" r="0.911" transform="translate(47.451 19.14)"/><circle class="c" cx="0.911" cy="0.911" r="0.911" transform="translate(55.26 19.069)"/><path class="c" d="M2989.457,998.358a12.154,12.154,0,0,0-2.017-.076.927.927,0,0,0-.786,1.037.941.941,0,0,0,1.037.785,9.135,9.135,0,0,1,1.524.077A.92.92,0,0,0,2989.457,998.358Z" transform="translate(-2932.618 -982.285)"/><path class="c" d="M2976.024,997.808a5.842,5.842,0,0,0-1.541.119.927.927,0,0,0-.681,1.108.939.939,0,0,0,1.108.681c.091-.019.183-.037.274-.051.043-.007.086-.012.13-.018l.04,0c.2,0,.4-.01.6,0a.929.929,0,0,0,.951-.887A.939.939,0,0,0,2976.024,997.808Z" transform="translate(-2927.087 -982.082)"/><path class="e" d="M2979.038,1018.1l5.084-.517s.065,2.938-2.37,3.16C2979.4,1020.958,2979.038,1018.1,2979.038,1018.1Z" transform="translate(-2929.349 -990.584)"/><path class="e" d="M2987.287,1003.552l-.095-.606-3.358.524a3.261,3.261,0,0,0-6.457-.2,1.707,1.707,0,0,0-1.63,0,3.268,3.268,0,1,0,.043.7,1.162,1.162,0,0,1,1.544.006,3.26,3.26,0,0,0,6.507.114Zm-14.753,2.924a2.655,2.655,0,0,1-2.6-2.127l2.007-.313.06-.633-2.115.333a2.649,2.649,0,1,1,2.646,2.74Zm8.056,0a2.651,2.651,0,1,1,2.651-2.651A2.654,2.654,0,0,1,2980.59,1006.476Z" transform="translate(-2925.152 -983.269)"/></g></g></g></svg>